# xmcd
#
# Track frame offsets:
#	150
#	15017
#	29307
#	49428
#	68928
#	86981
#	98316
#	110252
#	128287
#	142549
#	155953
#	177547
#	192167
#	205639
#	226173
#	237313
#	263341
#	283764
#	295631
#	312036
#	325142
#	338936
#
# Disc length: 4787 seconds
#
# Revision: 0
# Processed by: cddbd v1.5.2PL0 Copyright (c) Steve Scherf et al.
# Submitted via: EasyCDDAExtractor 8.2.3.1
#
DISCID=2112b116
DTITLE=Various Artist - It's Country Blues  part4 CD1
DYEAR=2007
DGENRE=Country
TTITLE0=NORAH JONES - Sunrise
TTITLE1=J.J.CALE and ERIC CLAPTON - Don't Cry Sister
TTITLE2=TONY JOE WHITE - Ice Cream Man
TTITLE3=ROGER GLOVER - Queen Og England
TTITLE4=ALBERT LEE and HOGAN'S HEROES - Tear It Up
TTITLE5=AMERICAN BLUES BOX - When You Were Young
TTITLE6=INNES SIBUN - Midlife Crisis Blues
TTITLE7=REBA McENTIRE - Nobody Dies From a Broken Heart
TTITLE8=CHRIS ISAAK - South Of the Border  Down Mexico Way
TTITLE9=TAB BENOIT - Louisiana Man
TTITLE10=ALBERT LEE and  HOGAN'S HEROES - If You See Me Getting Smaller
TTITLE11=GEORGE THOROGOOD - Drifter's Escape
TTITLE12=ERIC BIBB - Cowgirl queen
TTITLE13=MARIA MULDAUR - Wedding Song
TTITLE14=DANNY JOHNSON - Biloxi Flattop
TTITLE15=ALBERT LEE and HOGAN'S HEROES - 'Til I Gain Control Again
TTITLE16=COLIN JAMES - Weeping Willow Tree
TTITLE17=CHRIS ISAAK - Waiting For My Lucky Day
TTITLE18=KEB' MO' - Talk
TTITLE19=SOLOMON BURKE - You're The Kind Of Trouble
TTITLE20=NORAH JONES - Creepin In
TTITLE21=JUNIOR WELLS - What My Momma Told Me,That's All Right
EXTD=
EXTT0=
EXTT1=
EXTT2=
EXTT3=
EXTT4=
EXTT5=
EXTT6=
EXTT7=
EXTT8=
EXTT9=
EXTT10=
EXTT11=
EXTT12=
EXTT13=
EXTT14=
EXTT15=
EXTT16=
EXTT17=
EXTT18=
EXTT19=
EXTT20=
EXTT21=
PLAYORDER=
